<svg width="369" height="88" viewBox="0 0 369 88" fill="none" xmlns="http://www.w3.org/2000/svg">
<g filter="url(#filter0_d_8_10872)">
<g clip-path="url(#clip0_8_10872)">
<rect width="369" height="84" rx="24" fill="#42B0FF"/>
<path fill-rule="evenodd" clip-rule="evenodd" d="M1.00064 83.5648C1.19406 83.6993 1.38065 83.845 1.56042 84H1.00064V83.5648ZM4.17935 83.9994C5.05109 82.1505 6.44489 80.7778 8.40845 79.9104C8.67441 79.7933 8.88336 79.5446 9.11957 79.3562C9.2442 79.3797 9.33099 79.4324 9.37192 79.5347C9.91812 79.4715 10.4625 79.3816 11.0112 79.3562C12.5098 79.2911 13.9259 79.5775 15.2576 80.3197C16.409 80.9601 17.3402 81.8201 18.0793 82.8995C18.3012 83.2318 18.5176 83.5623 18.8059 83.9994H4.17935ZM19.0396 83.9994C19.1122 83.4618 19.1587 83.0588 19.2306 82.662C19.8642 79.2464 22.6232 76.7404 26.0544 76.4167C29.7998 76.0602 32.7164 78.4776 33.7859 81.1982C34.1436 82.1096 34.3079 83.0601 34.2992 84L19.0396 83.9994ZM22.7455 -77.1771L26.1889 -75.805C26.2509 -75.4901 26.2466 -75.1602 26.1617 -74.8384C25.8597 -73.6889 24.567 -72.9772 23.4156 -73.3201C22.2401 -73.6691 21.5885 -74.906 21.9611 -76.0778C22.1075 -76.5348 22.3889 -76.9117 22.7455 -77.1771ZM74.8123 -56.42L78.717 -54.8637C78.7158 -54.6399 78.6811 -54.4111 78.6098 -54.1842C78.2483 -53.036 76.9686 -52.3564 75.8167 -52.6987C74.6083 -53.0595 73.8816 -54.4862 74.3205 -55.645C74.4333 -55.9438 74.6033 -56.2042 74.8123 -56.42ZM127.014 -35.6089L131.345 -33.8828C131.329 -33.7991 131.308 -33.716 131.282 -33.6341C130.802 -32.1195 129.286 -31.665 128.232 -32.029C127.013 -32.4537 126.343 -33.7042 126.711 -34.948C126.783 -35.1898 126.886 -35.4111 127.014 -35.6089ZM179.228 -14.7934L183.89 -12.9347L183.86 -12.8342C183.498 -11.7548 182.227 -10.7126 180.592 -11.3059C179.317 -11.774 178.649 -13.1393 179.074 -14.4258C179.117 -14.5547 179.168 -14.6781 179.228 -14.7934ZM231.463 6.0319L236.224 7.92973C235.702 9.1623 234.408 9.75936 233.091 9.33094C231.717 8.92484 231.019 7.46287 231.438 6.10506L231.463 6.0319ZM283.804 26.8982L288.699 28.8499C288.098 29.899 286.897 30.4055 285.668 30.0428C284.252 29.6225 283.471 28.2826 283.804 26.8982ZM336.036 47.7216L341.088 49.7354C340.452 50.6772 339.238 51.1912 337.905 50.7863C336.615 50.3964 335.851 49.0336 336.036 47.7216ZM388.417 68.604L393.487 70.6253C392.788 71.4381 391.656 71.8169 390.442 71.4858C389.194 71.1454 388.384 69.8825 388.417 68.604ZM9.11957 79.3562C9.2442 79.3797 9.33099 79.4324 9.37192 79.5347C10.0297 79.2173 10.6931 78.9048 11.3454 78.5768C14.6302 76.922 16.2459 73.1369 15.032 69.7008C13.9984 66.7713 11.873 65.0551 8.76743 64.7563C5.72754 64.468 3.29773 65.7099 1.80475 68.3232C1.43274 68.9742 1.16928 69.6357 1 70.2948V73.8685C1.75952 76.7881 4.34552 79.0896 7.64395 79.3239C8.13562 79.358 8.62604 79.3481 9.11957 79.3562ZM48.3163 83.9994C48.5023 83.6367 48.6635 83.2479 48.7974 82.8319C50.2352 78.3654 47.2958 74.721 44.0997 73.698C41.0988 72.7463 36.5797 73.8375 35.0706 78.3077C34.3501 80.4443 34.6427 82.419 35.4878 83.9988L48.3163 83.9994ZM80.6948 83.9994C79.9861 83.3496 79.0983 82.8152 78.0127 82.4587C75.3355 81.5783 72.7283 82.321 70.9557 83.9994H80.6948ZM30.0032 70.8212C31.2538 67.1824 29.1631 63.1933 25.492 62.019C22.3579 61.0257 18.0675 62.2862 16.732 66.6355C15.373 71.058 18.3049 74.375 21.1935 75.3261C24.7803 76.4905 28.8673 74.5679 30.0032 70.8212ZM55.1438 83.8617C55.3025 83.9138 55.4662 83.9597 55.6311 84H58.8229C60.9117 83.5158 62.9025 82.0519 63.7674 79.3345C65.0186 75.4049 62.6577 71.7785 59.2482 70.7133C55.5716 69.5719 51.7269 71.5993 50.6178 75.2313C49.3672 79.3264 51.9353 82.897 55.1438 83.8617ZM97.567 83.9994C96.9426 81.9093 95.356 80.1529 93.1495 79.4963C89.0078 78.2668 85.5253 80.7413 84.5612 83.9994H97.567ZM1.00064 62.3203C1.50098 62.6514 2.0639 62.9279 2.68701 63.135C6.06915 64.2609 9.98819 62.6266 11.1991 58.7292C12.3758 54.9429 10.2498 51.4094 6.85901 50.3319C4.64001 49.622 2.57358 50.0597 1.00064 51.1366V62.3203ZM40.712 59.0653C37.4259 57.8916 33.5031 59.6902 32.3344 63.3476C31.3151 66.5345 32.7877 70.4926 36.7092 71.6935C40.8558 72.967 44.0674 70.2105 44.9763 67.4564C46.1147 64.0079 44.1834 60.0802 40.712 59.0653ZM66.2437 72.0203C65.0688 75.3937 67.0578 79.1633 70.4312 80.2713C73.5232 81.285 77.459 79.7623 78.6699 76.0565C79.7202 72.8455 78.1763 69.007 74.4718 67.8203C70.3885 66.514 67.0342 69.1986 66.2437 72.0203ZM108.294 76.5004C104.89 75.403 101.261 77.4205 100.212 80.6762C99.8579 81.7736 99.8245 82.9193 100.061 83.9994H112.675C113.408 80.5385 111.249 77.387 108.294 76.5004ZM13.9947 51.4739C13.0517 54.0345 13.9829 58.0739 18.0378 59.4509C21.6232 60.6773 25.1009 58.5928 26.1263 55.3291C27.318 51.5409 24.8863 48.1718 21.9016 47.2864C18.5988 46.3006 14.9514 48.1792 13.9947 51.4739ZM59.9407 64.0241C61.0375 60.7139 59.278 57.0763 55.9579 56.0322C51.9737 54.7655 48.8532 57.359 47.9691 60.0263C47.0565 62.7803 48.0924 66.643 51.9557 68.0287C55.1896 69.1856 58.8539 67.3107 59.9407 64.0241ZM93.6145 72.6558C94.6784 69.738 93.2543 66.0422 89.7413 64.8139C86.8254 63.7916 83.0143 65.083 81.8294 68.8403C80.6452 72.5981 83.0266 75.7477 85.8253 76.6269C89.2899 77.7256 92.7142 75.6789 93.6145 72.6558ZM3.30392 35.5665C2.61014 35.3321 1.81531 35.2292 1.00064 35.2837V47.5976C4.0405 47.8667 6.52487 45.8437 7.3129 43.3562C8.43387 39.8073 6.29916 36.4903 3.30392 35.5665ZM123.555 73.5244C120.533 72.471 116.885 73.9379 115.79 77.4937C114.928 80.2905 116.011 82.6093 117.65 84H125.658C126.465 83.3056 127.12 82.3632 127.502 81.1629C128.555 77.8551 126.682 74.5003 123.555 73.5244ZM41.1001 51.8837C42.1175 48.9697 40.5631 45.3452 37.1122 44.2856C34.1802 43.3829 30.7386 44.7128 29.5872 48.165C28.4818 51.4733 30.2518 54.7885 33.4771 55.8288C37.0056 56.9758 40.2755 54.7978 41.1001 51.8837ZM160.119 83.9994C159.403 83.168 158.441 82.5083 157.268 82.1518C155.178 81.5163 152.563 82.0495 150.939 83.9994H160.119ZM63.5046 56.8841C62.494 60.3109 64.2926 63.4419 67.2773 64.4568C70.5193 65.5555 73.7805 63.8077 74.876 60.7604C75.8389 58.0826 74.8128 54.3371 71.0612 53.0847C68.1273 52.0927 64.7861 53.4641 63.5046 56.8841ZM108.599 69.2222C109.68 66.1612 107.85 62.7921 104.912 61.7995C101.96 60.8093 98.4424 62.3116 97.3965 65.62C96.5192 68.3957 97.7573 71.8033 101.216 72.9893C104.257 74.0334 107.597 72.2819 108.599 69.2222ZM131.377 74.2281C130.497 77.0373 131.775 80.4567 135.2 81.5448C138.151 82.4804 141.47 81.0401 142.48 77.6741C143.491 74.3087 141.567 71.3755 138.737 70.4696C135.208 69.3493 132.253 71.5212 131.377 74.2281ZM14.9557 43.6507C17.8065 44.6315 21.2332 43.1993 22.286 39.8935C23.3698 36.4909 21.2624 33.4442 18.4996 32.5706C15.3593 31.573 12.1006 33.4033 11.16 36.3334C10.2436 39.1922 11.71 42.6643 14.9557 43.6507ZM48.9673 52.2223C52.076 53.226 55.2355 51.2873 56.1172 48.4433C56.9833 45.6552 55.574 42.2625 52.3779 41.2494C49.0361 40.1966 45.9324 42.278 45.0941 45.1096C44.3074 47.7731 45.5908 51.2303 48.9673 52.2223ZM176.517 83.9994C176.272 81.8734 174.802 79.8974 172.594 79.1788C169.617 78.2172 166.354 79.8422 165.366 82.8449C165.244 83.2182 165.162 83.6057 165.119 83.9994H176.517ZM79.0809 53.7624C78.1596 56.7006 79.7722 59.9457 82.7154 60.8521C86.1019 61.8925 89.0562 59.9661 89.9193 57.1426C90.9757 53.6787 88.6985 50.7628 86.0994 50.0014C83.274 49.1774 79.9929 50.7355 79.0809 53.7624ZM112.986 62.4065C112.095 64.9938 113.335 68.4112 116.705 69.4014C120.329 70.4647 123.016 67.9958 123.687 65.6026C124.493 62.7171 122.882 59.5402 120.009 58.6914C116.617 57.7031 113.719 59.7621 112.986 62.4065ZM1.00064 30.9257C2.13336 30.2462 3.03485 29.1748 3.45151 27.835C4.23331 25.3264 3.09933 22.6735 1.00064 21.3832V30.9257ZM26.7668 33.1782C25.7909 36.0978 27.6236 39.186 30.3585 40.0441C32.5849 40.7478 36.0879 40.041 37.2467 36.4797C38.2982 33.2501 36.4271 30.3243 33.5806 29.5016C30.2524 28.543 27.4854 30.5977 26.7668 33.1782ZM153.798 67.4118C151.259 66.5214 147.924 67.9394 146.953 71.0357C146.157 73.5821 147.268 76.8526 150.523 77.9215C153.217 78.8 156.37 77.6139 157.435 74.3893C158.602 70.8559 156.216 68.0293 153.798 67.4118ZM71.0804 45.0817C72.0197 42.3003 70.3308 39.1346 67.4385 38.2542C65.1054 37.5511 61.7667 38.5722 60.7077 41.8173C59.8205 44.5361 61.0791 47.713 64.2436 48.6988C67.746 49.7838 70.466 47.4402 71.0804 45.0817ZM180.935 79.7306C180.467 81.1498 180.645 82.711 181.374 83.9994H190.812C191.025 83.6305 191.191 83.2442 191.304 82.8555C192.122 80.0165 190.59 76.9456 187.769 76.1049C184.644 75.1662 181.717 76.9518 180.935 79.7306ZM104.809 53.6793C105.659 50.9562 104.336 47.8984 101.281 46.9652C98.102 45.9912 95.3635 47.8636 94.5581 50.4956C93.7062 53.2695 95.0535 56.2653 98.0989 57.2133C101.159 58.165 103.96 56.4098 104.809 53.6793ZM11.7391 27.8598C14.4739 28.84 17.5293 27.2274 18.414 24.5781C19.3614 21.7465 17.8859 18.631 15.0599 17.7704C11.7844 16.776 9.0712 18.7265 8.31171 21.2586C7.35379 24.446 9.37067 27.1914 11.7391 27.8598ZM135.057 55.6391C132.293 54.8238 129.278 56.4333 128.511 59.1998C127.742 61.9743 129.101 64.814 132.036 65.7712C134.842 66.695 137.885 64.9999 138.686 62.1386C139.511 59.1874 137.664 56.3317 135.057 55.6391ZM45.6918 36.5194C48.4825 37.3775 51.3556 35.9341 52.2701 33.074C53.1523 30.3175 51.5267 27.3483 48.754 26.5224C46.3316 25.8001 43.3085 26.9062 42.2886 29.9157C41.4497 32.397 42.6092 35.5076 45.6918 36.5194ZM172.447 70.903C173.259 68.17 171.97 65.3428 169.142 64.4097C166.059 63.3886 163.34 65.1711 162.529 67.7646C161.684 70.4622 162.997 73.4116 166.007 74.313C168.833 75.1643 171.53 73.631 172.447 70.903ZM86.0765 41.6524C86.9129 38.9256 85.3914 36.1034 82.6472 35.2614C79.7258 34.3699 76.9897 36.1548 76.2364 38.6708C75.4887 41.1713 76.676 44.1597 79.683 45.0686C82.9343 46.0476 85.5154 43.8348 86.0765 41.6524ZM196.44 76.4992C195.541 79.6438 197.509 82.2317 199.821 82.9553C202.508 83.7966 205.458 82.2398 206.265 79.5818C207.09 76.8681 205.606 73.9795 202.901 73.1319C200.42 72.3557 197.436 73.5597 196.44 76.4992ZM110.134 47.287C109.321 49.9239 110.761 52.7908 113.404 53.6012C116.335 54.4952 119.045 52.8243 119.816 50.2358C120.617 47.5493 119.188 44.8107 116.545 43.9198C113.982 43.0642 110.913 44.5063 110.134 47.287ZM239.563 83.9994C238.934 82.9993 237.949 82.2268 236.731 81.8573C234.309 81.1176 232.063 82.2193 230.958 83.9994H239.563ZM23.8993 18.0526C23.0157 20.6764 24.6656 23.5322 27.2262 24.3059C29.8029 25.0884 32.6915 23.5966 33.4876 20.9635C34.2762 18.3526 32.7529 15.5025 30.139 14.6921C27.8015 13.9711 24.7152 15.1702 23.8993 18.0526ZM144.092 56.0266C143.338 58.5959 144.822 61.363 147.376 62.1616C150.008 62.9781 152.85 61.4721 153.663 58.834C154.32 56.6999 153.517 53.5813 150.284 52.6067C147.257 51.7008 144.676 53.6948 144.092 56.0266ZM57.8334 26.8641C57.0981 29.0514 58.2587 32.0746 61.1963 32.9358C63.6062 33.637 66.4583 32.4168 67.2785 29.5698C68.0697 26.82 66.4211 24.2297 63.9039 23.4844C61.3867 22.7503 58.5334 24.2086 57.8334 26.8641ZM178.093 64.6397C177.323 67.2208 178.838 70.0418 181.407 70.7145C184.273 71.4654 186.752 69.8254 187.461 67.3566C188.212 64.7433 186.759 62.0834 184.14 61.2967C181.698 60.5607 178.813 61.9557 178.093 64.6397ZM101.147 38.08C101.85 35.5565 100.338 32.8868 97.7946 32.1515C95.3939 31.4533 92.5505 32.756 91.7575 35.585C91.1853 37.6323 92.0843 40.6245 95.1155 41.498C98.0134 42.3363 100.569 40.4416 101.147 38.08ZM212.092 73.1654C211.184 75.6678 212.562 78.4187 215.044 79.2818C217.749 80.2266 220.467 78.6289 221.26 76.1954C221.987 73.9609 220.89 71.0456 218.163 70.1385C215.48 69.2526 212.768 70.8695 212.092 73.1654ZM8.67068 12.1358C10.6752 12.8383 13.7318 11.9089 14.6419 8.93476C15.5118 6.08646 13.6227 3.56799 11.4545 2.94489C8.92798 2.21577 6.1832 3.64735 5.44229 6.15093C4.69272 8.68427 6.133 11.3577 8.67068 12.1358ZM131.722 40.909C129.241 40.1049 126.55 41.3164 125.709 44.0072C124.881 46.6577 126.317 49.1979 128.88 49.9828C131.657 50.8285 134.06 49.0857 134.773 46.9442C135.565 44.5609 134.386 41.7516 131.722 40.909ZM246.013 81.9379C245.78 82.6403 245.729 83.3391 245.822 84H255.289C255.594 81.763 254.222 79.4981 251.999 78.7796C249.739 78.0461 246.812 79.1813 246.013 81.9379ZM168.664 55.4587C169.432 53.0004 168.062 50.3654 165.609 49.5736C163.095 48.7608 160.296 50.2004 159.628 52.7263C158.946 55.308 160.254 57.7465 162.8 58.5525C165.255 59.3387 167.902 57.9027 168.664 55.4587ZM42.5453 20.7254C45.0048 21.5729 47.6615 20.0794 48.426 17.7072C49.1923 15.3276 47.8972 12.5333 45.243 11.7446C43.1907 11.1407 40.3052 11.9827 39.4279 14.9073C38.5785 17.7357 40.3554 20.1302 42.5453 20.7254ZM76.5029 29.3001C79.0016 30.0639 81.5653 28.6708 82.2808 26.1604C83.0514 23.4478 81.3588 21.1141 79.257 20.4507C77.1124 19.765 74.3212 20.646 73.4023 23.495C72.6081 25.9533 73.9739 28.5691 76.5029 29.3001ZM196.658 67.2072C198.739 67.8569 201.596 66.9449 202.464 64.0786C203.26 61.4529 201.639 59.0646 199.48 58.364C197.09 57.5822 194.443 58.8067 193.596 61.3469C192.789 63.7668 194.217 66.4551 196.658 67.2072ZM113.13 29.173C110.617 28.3335 108.146 29.7911 107.382 32.0498C106.646 34.2279 107.657 37.029 110.418 37.8685C112.846 38.6008 115.311 37.2727 116.105 34.8665C116.743 32.929 115.912 30.0546 113.13 29.173ZM236.274 72.7283C236.942 70.6668 236.013 67.9109 233.279 67.0367C231.06 66.3342 228.467 67.3758 227.581 70.0338C226.797 72.383 228.205 75.0279 230.583 75.7273C233.382 76.5537 235.693 74.7458 236.274 72.7283ZM146.915 37.7966C144.6 37.0383 141.93 38.3794 141.229 40.816C140.553 43.1733 141.831 45.6713 144.175 46.3862C146.761 47.1878 149.17 45.6657 149.851 43.3729C150.608 40.8309 149.012 38.4228 146.915 37.7966ZM29.6417 5.49869C30.3597 3.32123 29.2071 0.731476 26.7085 -0.0596542C23.9445 -0.935104 21.6071 0.890205 21.0249 2.94366C20.3417 5.3592 21.7075 7.85967 24.151 8.5702C26.1114 9.13688 28.8617 8.20687 29.6417 5.49869ZM267.176 75.7663C264.776 74.9647 262.347 76.3281 261.567 78.5991C260.844 80.6991 261.876 83.0185 263.807 84H267.846C268.907 83.4693 269.756 82.5281 270.106 81.3228C270.848 78.7765 269.391 76.4217 267.176 75.7663ZM55.0222 11.5475C54.2305 13.6648 55.4123 16.342 57.8439 17.1294C60.3376 17.9366 62.7463 16.4418 63.4519 14.3139C64.0651 12.4651 63.4382 9.66575 60.6066 8.70536C57.9927 7.82495 55.5858 9.51447 55.0222 11.5475ZM175.28 49.3219C174.5 51.6717 175.734 54.1654 178.091 54.9032C180.878 55.7681 183.059 53.9899 183.662 52.0394C184.298 49.9778 183.373 47.434 180.885 46.5759C178.537 45.7631 176.056 46.9801 175.28 49.3219ZM209.224 58.0491C208.482 60.0244 209.397 62.6607 211.923 63.5479C213.998 64.2745 216.577 63.2732 217.405 60.8081C218.191 58.4682 216.969 56.0669 214.704 55.3155C212.056 54.4326 209.776 56.1357 209.224 58.0491ZM91.7929 25.691C93.9778 26.4263 96.4634 25.3147 97.2558 22.927C98.0742 20.4576 96.6246 18.0526 94.3572 17.3718C92.0539 16.6786 89.6061 18.0464 88.9539 20.2703C88.2744 22.5978 89.4722 24.9489 91.7929 25.691ZM122.968 28.8072C122.193 30.8867 123.266 33.4609 125.701 34.2489C127.931 34.9619 130.297 33.8056 131.063 31.6176C131.859 29.3441 130.683 26.8944 128.435 26.0965C126.434 25.3853 123.749 26.3271 122.968 28.8072ZM5.4653 -3.616C7.52124 -2.96686 10.1029 -3.99483 10.8618 -6.50833C11.4967 -8.60457 10.4538 -11.1007 7.90622 -11.8528C5.83353 -12.4548 3.45892 -11.4746 2.63123 -9.04478C1.86676 -6.79602 3.19238 -4.31723 5.4653 -3.616ZM248.546 64.0272C246.115 63.1691 243.835 64.7674 243.196 66.6355C242.416 68.9233 243.652 71.3649 245.878 72.112C248.122 72.8666 250.583 71.5714 251.302 69.3077C251.908 67.395 251.005 64.7966 248.546 64.0272ZM162.178 34.7766C160.015 34.058 157.683 35.0147 156.84 37.3632C156.058 39.545 157.082 41.9978 159.561 42.7821C162.017 43.5676 164.185 42.066 164.834 40.0782C165.52 37.9795 164.48 35.5491 162.178 34.7766ZM39.4056 5.00394C41.3152 5.6847 43.8932 4.62263 44.6292 2.21515C45.2851 0.071167 44.2292 -2.32081 41.8937 -3.06048C39.5891 -3.78712 37.2269 -2.60414 36.5412 -0.188606C35.8058 2.39496 37.4594 4.50421 39.4056 5.00394ZM277.127 75.4638C276.373 77.7256 277.804 80.0623 279.892 80.6941C282.094 81.3563 284.47 80.0872 285.13 77.8923C285.792 75.6814 284.536 73.3031 282.339 72.6446C280.216 72.0091 277.777 73.1512 277.127 75.4638ZM190.737 46.1456C190.049 48.5252 191.269 50.653 193.288 51.3946C195.445 52.1832 197.881 51.0467 198.648 48.7998C199.37 46.6869 198.224 44.3271 196.12 43.5478C193.999 42.756 191.484 43.97 190.737 46.1456ZM75.8408 5.69585C73.8586 4.93821 71.3271 5.86573 70.5416 8.33707C69.7666 10.7675 71.2502 12.8681 73.1617 13.5135C75.6554 14.3548 77.8787 12.7664 78.477 10.8586C79.1212 8.80704 78.0443 6.36484 75.8408 5.69585ZM318.847 83.9994C318.473 82.8356 317.58 81.7872 316.093 81.3365C314.001 80.7022 311.769 81.7525 311.004 83.9994H318.847ZM229.882 52.2502C227.782 51.5093 225.453 52.5732 224.724 54.8071C223.888 57.3757 225.536 59.3877 227.296 59.986C229.42 60.7002 231.739 59.529 232.455 57.3851C233.179 55.2206 232.053 52.9638 229.882 52.2502ZM107.095 22.0522C109.147 22.8049 111.504 21.7676 112.252 19.522C113.093 16.9905 111.494 14.9507 109.717 14.3381C107.637 13.6121 105.213 14.7851 104.527 16.8919C103.815 19.07 104.954 21.3838 107.095 22.0522ZM18.2021 -12.3698C17.4053 -10.1744 18.7637 -7.84505 20.7546 -7.21513C22.8985 -6.53746 25.2168 -7.7105 25.887 -9.84084C26.5368 -11.898 25.4015 -14.1765 23.3692 -14.8871C21.2351 -15.6323 18.9175 -14.5027 18.2021 -12.3698ZM266.291 66.0174C266.926 64.3068 266.255 61.8348 263.844 60.9309C261.76 60.1496 259.334 61.3754 258.661 63.4964C258.006 65.5604 259.181 67.8588 261.24 68.5365C263.317 69.2197 265.589 68.0845 266.291 66.0174ZM138.403 25.58C137.806 27.1982 138.487 29.7694 140.945 30.5922C143.339 31.3827 145.501 29.9058 146.064 27.9609C146.672 25.864 145.535 23.6741 143.397 23.0083C141.005 22.2605 138.893 23.849 138.403 25.58ZM57.0205 -6.13074C55.0031 -6.82081 52.714 -5.55166 52.0891 -3.50378C51.5348 -1.68593 52.4592 0.725883 54.7476 1.43145C56.6151 2.00248 58.9736 1.07991 59.6705 -1.21721C60.3364 -3.41141 59.0201 -5.60684 57.0205 -6.13074ZM179.847 36.6986C180.573 34.4628 179.236 32.3139 177.274 31.7218C174.841 30.9964 172.855 32.565 172.299 34.3364C171.712 36.2119 172.61 38.5803 174.893 39.32C176.773 39.9288 179.143 39.0112 179.847 36.6986ZM297.581 69.6184C295.47 68.9066 293.271 69.9866 292.584 72.0854C291.901 74.1667 293.04 76.3832 295.114 77.0652C296.901 77.6549 299.241 76.7621 299.998 74.6323C300.722 72.5987 299.676 70.2892 297.581 69.6184ZM88.5546 9.92119C90.9187 10.7557 92.9164 9.16541 93.475 7.55277C94.0683 5.83722 93.4266 3.34913 90.9491 2.54623C88.8398 1.86298 86.7182 3.15135 86.0932 5.0591C85.4862 6.91044 86.4019 9.26646 88.5546 9.92119ZM211.144 40.4608C209.012 39.7242 206.883 41.1 206.29 42.9377C205.649 44.9279 206.715 47.1649 208.73 47.8364C210.986 48.594 213.124 47.2052 213.722 45.2708C214.248 43.58 213.463 41.1403 211.144 40.4608ZM333.498 83.9994C333.645 83.7582 333.765 83.499 333.856 83.2269C334.515 81.2422 333.375 78.9904 331.396 78.3301C329.417 77.6697 327.216 78.8192 326.527 80.8212C326.162 81.8814 326.328 83.0582 326.887 83.9994H333.498ZM7.03265 -21.8181C7.84424 -24.1847 6.22665 -26.1767 4.6109 -26.6864C3.34052 -27.0925 1.99075 -26.8054 1.00122 -26.0335V-20.0095C1.34903 -19.7312 1.74835 -19.5092 2.19165 -19.3629C4.22464 -18.6864 6.36243 -19.7764 7.03265 -21.8181ZM120.027 13.782C119.406 15.6035 120.331 17.8932 122.578 18.5591C124.775 19.2175 126.781 17.9893 127.373 16.0022C128.007 13.8774 126.841 11.8525 124.798 11.217C122.716 10.5778 120.577 11.7793 120.027 13.782ZM240.305 51.5285C239.508 53.6966 240.885 55.8065 242.675 56.3974C244.676 57.0639 246.887 55.9535 247.507 53.9211C248.245 51.4969 246.717 49.7261 245.18 49.1644C243.276 48.4756 240.939 49.4763 240.305 51.5285ZM156.598 27.1424C158.626 27.6168 160.662 26.4059 161.168 24.4349C161.692 22.3895 160.391 20.243 158.313 19.7985C156.113 19.3223 154.219 20.744 153.825 22.6208C153.325 25.0072 154.814 26.6607 156.598 27.1424ZM36.2156 -10.7175C38.196 -10.0566 40.3127 -11.3022 40.8905 -13.1975C41.4801 -15.1338 40.3784 -17.2611 38.426 -17.8947C36.5536 -18.4936 34.254 -17.5698 33.6402 -15.3322C33.0152 -13.0568 34.4369 -11.1707 36.2156 -10.7175ZM70.0593 -2.1534C72.0408 -1.52782 74.119 -2.60106 74.734 -4.5733C75.3448 -6.52941 74.243 -8.65663 72.2919 -9.26176C70.6228 -9.77946 68.3617 -9.10553 67.6059 -6.81027C67.0243 -5.03767 67.8576 -2.84843 70.0593 -2.1534ZM278.935 57.8662C276.879 57.1476 274.824 58.4291 274.246 60.2377C273.58 62.3259 274.836 64.3688 276.626 64.9497C278.565 65.5797 280.699 64.4891 281.329 62.5478C281.972 60.5669 280.917 58.5091 278.935 57.8662ZM310.593 73.5269C312.591 74.1047 314.6 72.9397 315.148 70.8844C315.66 68.9494 314.54 66.9926 312.593 66.4315C310.702 65.8872 308.617 67.0119 308.049 68.8843C307.452 70.854 308.602 72.9521 310.593 73.5269ZM194.878 33.2538C195.524 31.2649 194.293 29.1847 192.345 28.641C190.8 28.2082 188.571 28.8394 187.827 31.1204C187.217 32.9891 188.345 35.1058 190.205 35.7097C191.904 36.2609 194.189 35.5361 194.878 33.2538ZM106.206 -0.501106C104.156 -1.20853 102.236 -0.00509644 101.606 1.74146C101.084 3.18979 101.544 5.52349 103.845 6.34748C106.228 7.18883 108.084 5.55262 108.56 4.03671C109.038 2.5301 108.447 0.207558 106.206 -0.501106ZM221.827 39.6634C221.202 41.5092 222.265 43.6581 224.128 44.2459C226.204 44.9099 228.136 43.6674 228.699 41.9581C229.317 40.0931 228.276 37.9956 226.418 37.3651C224.58 36.7507 222.452 37.8171 221.827 39.6634ZM344.455 82.122C346.577 82.8096 348.472 81.3272 348.939 79.7201C349.406 78.1211 348.66 75.9077 346.483 75.2449C344.741 74.7235 342.619 75.5717 342.005 77.6685C341.414 79.6835 342.565 81.6055 344.455 82.122ZM15.2291 -27.3176C14.6308 -25.6652 15.5527 -23.4388 17.644 -22.8132C19.3335 -22.3172 21.4099 -23.1449 22.0585 -25.1252C22.6934 -27.064 21.6976 -29.043 19.7508 -29.6736C17.7996 -30.2985 15.8373 -29.2755 15.2291 -27.3176ZM135.5 10.6553C135.104 12.4775 135.986 14.4714 138.178 15.0065C140.155 15.4907 141.954 14.2656 142.423 12.439C142.925 10.4848 141.708 8.49641 139.769 8.07791C137.69 7.62345 135.963 8.9763 135.5 10.6553ZM255.768 48.3026C255.08 50.6016 256.595 52.4052 258.114 52.8553C259.943 53.3966 261.981 52.3983 262.55 50.578C263.18 48.5655 262.124 46.7265 260.381 46.1078C258.083 45.2937 256.295 46.7836 255.768 48.3026ZM169.442 19.1084C168.773 20.9139 169.767 22.9097 171.568 23.5644C173.409 24.2321 175.492 23.2141 176.124 21.2983C176.61 19.8301 175.967 17.6049 173.851 16.9105C171.83 16.2372 169.878 17.5367 169.442 19.1084ZM380.606 83.9994C380.544 83.9758 380.482 83.9547 380.42 83.9361C379.715 83.7229 378.883 83.721 378.117 83.9994H380.606ZM51.5087 -14.3043C53.675 -13.595 55.4668 -15.1022 55.9132 -16.54C56.4805 -18.361 55.5133 -20.3828 53.7109 -20.9861C51.8844 -21.5974 49.8049 -20.611 49.1911 -18.6567C48.7149 -17.1402 49.4236 -14.9187 51.5087 -14.3043ZM296.385 59.0758C296.961 57.2232 295.905 55.2535 294.05 54.7116C292.277 54.1964 290.346 55.1946 289.754 56.9374C289.143 58.7441 290.17 60.7765 291.997 61.3692C293.839 61.9675 295.808 60.9371 296.385 59.0758ZM83.1277 -9.93012C82.592 -8.05585 83.6857 -6.15987 85.5891 -5.67503C87.4801 -5.18336 89.2447 -6.20887 89.7816 -8.01308C90.3594 -9.95246 89.3141 -11.779 87.415 -12.3345C85.5284 -12.8857 83.6758 -11.8534 83.1277 -9.93012ZM203.425 27.7606C202.723 29.6869 203.936 31.6214 205.631 32.1546C207.39 32.7089 209.297 31.7218 209.885 29.9597C210.635 27.7054 209.113 25.9905 207.673 25.5633C205.853 25.0338 203.948 26.0314 203.425 27.7606ZM323.587 65.7514C323.028 67.5742 324.005 69.3896 325.822 69.9885C327.551 70.5589 329.479 69.6661 330.092 67.8148C330.723 65.9089 329.627 63.9955 327.792 63.453C326.051 62.9397 324.058 63.9602 323.587 65.7514ZM1.00064 -34.9541C2.07199 -35.2263 2.97906 -36.0205 3.38641 -37.1477C3.96301 -38.7461 3.30826 -40.8622 1.19839 -41.5367C1.13205 -41.5584 1.06573 -41.5764 1.00064 -41.5938V-34.9541ZM117.155 -1.42366C116.576 0.218117 117.382 2.17918 119.33 2.81159C121.118 3.40121 122.997 2.4309 123.573 0.629784C124.142 -1.14653 123.159 -3.05117 121.394 -3.63335C119.943 -4.12192 117.765 -3.46719 117.155 -1.42366ZM237.35 36.4729C236.668 38.4594 238.05 40.2791 239.53 40.7274C241.318 41.255 243.204 40.2958 243.773 38.5022C244.346 36.6998 243.378 34.846 241.571 34.275C239.745 33.7009 237.928 34.647 237.35 36.4729ZM357.597 74.3236C357.006 76.1365 357.946 77.9308 359.764 78.5291C361.757 79.1844 363.547 77.7993 363.969 76.3095C364.447 74.6181 363.519 72.7413 361.843 72.1784C360.107 71.5962 358.112 72.5466 357.597 74.3236ZM151.091 7.19564C150.49 9.12758 151.545 10.8524 153.263 11.429C154.999 12.0019 157.007 10.9231 157.477 9.1778C157.889 7.65011 157.345 5.77956 155.338 5.06779C153.627 4.45895 151.742 5.28789 151.091 7.19564ZM32.9123 -26.4464C34.6476 -25.837 36.5449 -26.7589 37.1165 -28.6127C37.7743 -30.7375 36.3223 -32.3972 34.8907 -32.8201C33.2136 -33.3136 31.3132 -32.3489 30.7621 -30.6811C30.2251 -29.0529 30.9729 -27.0398 32.9123 -26.4464ZM271.305 45.2212C270.799 46.9646 271.775 48.744 273.521 49.2667C275.228 49.7776 277.096 48.7856 277.617 47.0911C278.165 45.3073 277.097 43.4027 275.306 42.9098C274.001 42.5446 271.884 43.097 271.305 45.2212ZM66.8781 -17.8346C68.6252 -17.3014 70.4151 -18.2308 70.9713 -19.9674C71.5504 -21.7654 70.549 -23.6062 68.7107 -24.1326C66.7025 -24.6968 65.0627 -23.3154 64.6572 -21.8987C64.1649 -20.1776 65.1613 -18.3578 66.8781 -17.8346ZM184.909 15.9439C184.399 17.6334 185.395 19.5145 187.081 20.0285C188.774 20.5524 190.627 19.566 191.152 17.8635C191.674 16.1684 190.685 14.2891 188.998 13.7851C187.316 13.2717 185.412 14.2786 184.909 15.9439ZM397.951 83.9994C397.959 82.6912 397.2 81.435 395.819 80.9248C394.018 80.2521 392.16 81.1412 391.544 82.9454C391.426 83.2913 391.366 83.6472 391.365 83.9994H397.951ZM311.429 55.6968C311.932 54.2689 311.151 52.2272 309.169 51.6984C307.468 51.2507 305.775 52.1503 305.238 53.8399C304.684 55.5852 305.623 57.3615 307.396 57.9015C309.16 58.4391 310.901 57.4861 311.429 55.6968ZM220.931 28.5753C222.628 29.1364 224.554 28.1636 225.015 26.458C225.491 24.6872 224.575 23.0424 222.935 22.5085C220.934 21.8594 219.397 23.1236 218.909 24.4343C218.293 26.0909 219.237 28.008 220.931 28.5753ZM98.6768 -13.3426C98.1436 -11.7027 99.0333 -9.91772 100.679 -9.34669C102.459 -8.73289 104.195 -9.63562 104.802 -11.3729C105.364 -12.9849 104.422 -14.8145 102.809 -15.3831C101.123 -15.9659 99.2236 -15.0284 98.6768 -13.3426ZM339.043 62.505C338.549 64.2256 339.582 66.0478 341.334 66.4954C343.16 66.9561 344.729 65.9052 345.224 64.2975C345.752 62.5794 344.667 60.7461 342.941 60.3003C341.287 59.8682 339.514 60.8732 339.043 62.505ZM256.857 31.1756C255.203 30.6114 253.408 31.4862 252.847 33.1255C252.284 34.7722 253.168 36.5634 254.813 37.1258C256.49 37.6974 258.241 36.8356 258.801 35.1696C259.371 33.482 258.517 31.7342 256.857 31.1756ZM132.618 -4.65886C132.113 -3.01151 133.062 -1.15395 134.704 -0.699493C136.661 -0.161331 138.201 -1.3629 138.648 -2.80007C139.063 -4.13308 138.582 -6.07059 136.566 -6.7495C134.932 -7.29945 133.126 -6.30621 132.618 -4.65886ZM12.3876 -42.4351C11.8767 -40.7648 12.8136 -39.0412 14.5124 -38.5235C16.2186 -38.004 17.8784 -38.9122 18.4221 -40.6191C18.9603 -42.308 17.9088 -44.075 16.324 -44.5549C14.6866 -45.0627 12.8935 -44.0819 12.3876 -42.4351ZM166.563 4.02309C166.028 5.66982 166.944 7.448 168.59 7.95702C170.227 8.46233 172.041 7.48891 172.511 5.86574C172.965 4.29031 172.066 2.56174 170.523 2.03163C168.892 1.4761 167.097 2.37698 166.563 4.02309ZM375.359 75.0453C377.076 75.4365 378.712 74.3719 379.082 72.6198C379.427 70.9904 378.388 69.4206 376.706 69.0219C375.074 68.6419 373.399 69.6494 373.007 71.2552C372.592 72.9577 373.64 74.6534 375.359 75.0453ZM46.3 -33.8846C45.7439 -32.3421 46.5499 -30.5905 48.1793 -30.0177C49.9141 -29.4181 51.6098 -30.2545 52.1733 -31.9539C52.7301 -33.6273 51.8534 -35.3571 50.1031 -35.8835C48.4632 -36.3721 46.832 -35.5146 46.3 -33.8846ZM290.651 39.8463C289.072 39.3497 287.35 40.2382 286.824 41.8192C286.279 43.4616 287.229 45.223 288.916 45.7097C290.503 46.1648 292.25 45.2131 292.691 43.6513C293.141 42.0573 292.218 40.3399 290.651 39.8463ZM407.002 79.761C406.525 81.3489 407.436 83.0793 409 83.579C410.553 84.0763 412.358 83.1965 412.845 81.6303C413.449 79.6996 412.188 78.092 410.777 77.7113C409.184 77.2711 407.475 78.1819 407.002 79.761ZM84.0397 -27.2183C82.429 -27.7162 80.7698 -26.86 80.2447 -25.2542C79.7233 -23.657 80.4419 -22.0041 82.1264 -21.4126C83.9393 -20.7796 85.6158 -21.9111 86.0436 -23.4338C86.4975 -25.0545 85.6425 -26.7149 84.0397 -27.2183ZM119.936 -14.8474C120.376 -16.6993 119.296 -18.2208 117.817 -18.5891C116.201 -18.9915 114.745 -18.2543 114.157 -16.5983C113.606 -15.0532 114.588 -13.2378 116.144 -12.7753C117.72 -12.3078 119.496 -13.2751 119.936 -14.8474ZM200.464 12.7366C199.974 14.3548 200.889 16.0258 202.512 16.4827C204.045 16.913 205.675 16.0388 206.171 14.5198C206.699 12.9059 205.844 11.2455 204.217 10.7334C202.577 10.2163 200.964 11.0787 200.464 12.7366ZM322.691 54.3216C324.324 54.8436 325.941 53.9924 326.462 52.3494C327.064 50.4602 325.704 48.9189 324.444 48.5773C322.908 48.1563 321.272 49.0026 320.77 50.5111C320.229 52.128 321.077 53.8051 322.691 54.3216ZM354.627 59.1756C354.136 60.756 354.865 62.28 356.471 62.882C358.003 63.4599 359.874 62.4784 360.272 60.9023C360.625 59.5135 360.145 57.8488 358.283 57.2629C356.616 56.7378 355.126 57.6572 354.627 59.1756ZM29.811 -42.0154C31.4726 -41.5963 32.965 -42.3669 33.4821 -43.9312C33.9967 -45.4868 33.195 -47.1131 31.6611 -47.6475C30.0944 -48.1925 28.2548 -47.2718 27.8493 -45.6895C27.4736 -44.2201 28.0459 -42.6856 29.811 -42.0154ZM238.085 19.3744C236.537 18.8958 234.932 19.7439 234.433 21.3051C233.909 22.9376 234.804 24.5855 236.458 25.045C237.988 25.4715 239.676 24.5285 240.088 23.0182C240.507 21.4744 239.611 19.8363 238.085 19.3744ZM65.39 -39.0084C63.8443 -39.5025 62.2397 -38.6729 61.7475 -37.1347C61.2639 -35.6312 62.1189 -33.9522 63.6205 -33.4612C65.0967 -32.9894 66.8538 -33.876 67.2897 -35.3621C67.7968 -37.087 66.7484 -38.6345 65.39 -39.0084ZM270.235 33.5676C271.81 34.0729 273.372 33.2383 273.88 31.6536C274.371 30.1228 273.537 28.4786 271.924 28.0235C270.438 27.6093 268.971 28.2634 268.378 29.8835C267.821 31.4081 268.682 33.0629 270.235 33.5676ZM149.996 -4.20129C151.522 -3.70466 153.119 -4.54477 153.638 -6.08301C154.229 -7.83514 153.043 -9.34733 151.8 -9.75405C150.301 -10.2333 148.625 -9.38267 148.134 -7.87047C147.642 -6.3589 148.487 -4.68365 149.996 -4.20129ZM304.117 42.2501C305.644 42.7287 307.321 41.8347 307.747 40.3213C308.163 38.855 307.32 37.2851 305.87 36.8133C304.362 36.3222 302.618 37.22 302.242 38.7341C301.874 40.2233 302.522 41.6599 304.117 42.2501ZM183.924 4.36283C185.455 4.85264 187.113 3.96976 187.545 2.44889C187.964 0.975761 187.129 -0.565582 185.662 -1.04361C184.142 -1.53837 182.435 -0.6437 182.031 0.85981C181.633 2.33914 182.477 3.89969 183.924 4.36283ZM9.43146 -57.6141C8.97266 -56.2687 9.61313 -54.6765 11.2586 -54.1148C12.6896 -53.6213 14.3102 -54.5265 14.7579 -55.9798C15.2074 -57.4349 14.3673 -59.0909 12.9122 -59.4784C11.1532 -59.9527 9.79108 -58.9304 9.43146 -57.6141ZM95.7169 -28.4007C95.2984 -26.9449 96.1881 -25.2821 97.6328 -24.9324C99.3229 -24.5244 100.675 -25.4792 101.085 -26.8668C101.476 -28.1992 100.861 -29.8007 99.1784 -30.3302C97.7127 -30.7908 96.1391 -29.8707 95.7169 -28.4007ZM217.735 12.8891C219.22 13.3734 220.761 12.5934 221.242 11.1147C221.73 9.61986 220.951 8.07977 219.472 7.59679C217.998 7.11752 216.426 7.90494 215.945 9.36752C215.466 10.8369 216.263 12.4006 217.735 12.8891ZM133.189 -21.5918C131.602 -22.1789 130.125 -21.0704 129.74 -19.9823C129.237 -18.5618 129.892 -16.974 131.422 -16.3974C132.822 -15.871 134.515 -16.7688 134.95 -18.2103C135.372 -19.6115 134.587 -21.1162 133.189 -21.5918ZM249.878 18.1245C249.461 19.5449 250.258 20.9957 251.685 21.4613C253.349 22.0113 254.846 20.8543 255.159 19.6131C255.504 18.2646 254.93 16.7561 253.34 16.2471C251.672 15.7139 250.229 16.7698 249.878 18.1245ZM43.417 -49.0593C42.7939 -47.309 43.9949 -45.9065 45.1723 -45.5376C46.5456 -45.1067 48.1557 -45.909 48.5835 -47.2829C49.1118 -48.9756 48.1167 -50.391 46.7867 -50.7816C45.3434 -51.2101 43.8969 -50.4865 43.417 -49.0593ZM167.026 -12.8541C165.337 -13.3495 164.015 -12.3333 163.645 -11.1447C163.197 -9.71499 163.919 -8.22823 165.334 -7.76694C166.765 -7.29202 168.228 -8.02671 168.706 -9.46265C169.177 -10.8837 168.441 -12.3754 167.026 -12.8541ZM77.2898 -40.417C76.831 -39.035 77.6778 -37.4212 79.0549 -37.043C80.3916 -36.6679 81.8802 -37.4559 82.313 -38.7579C82.7637 -40.1144 81.9131 -41.7823 80.5404 -42.1257C79.2409 -42.4438 77.8992 -41.9608 77.2898 -40.417ZM199.248 0.792244C200.598 1.19772 202.06 0.461151 202.5 -0.863174C202.92 -2.12427 202.283 -3.7679 200.744 -4.21741C199.377 -4.61111 197.958 -3.89687 197.499 -2.55084C197.018 -1.13289 197.8 0.355141 199.248 0.792244ZM116.107 -30.1739C116.561 -31.5565 115.861 -32.9305 114.481 -33.3899C113.153 -33.8412 111.738 -33.1611 111.237 -31.7586C110.775 -30.4746 111.577 -28.9283 112.882 -28.5011C114.203 -28.0609 115.666 -28.8229 116.107 -30.1739ZM28.0986 -62.5748C26.6112 -63.077 25.2 -62 24.8937 -60.8784C24.4784 -59.36 25.4158 -58.0251 26.6174 -57.6569C27.9609 -57.2446 29.403 -58.0394 29.8128 -59.391C30.2313 -60.7681 29.493 -62.1451 28.0986 -62.5748ZM58.8105 -52.3C58.3746 -50.9379 59.1496 -49.4778 60.4957 -49.1095C61.7952 -48.7542 63.1332 -49.4858 63.5498 -50.7835C63.9621 -52.0743 63.2925 -53.447 62.032 -53.9207C61.0351 -54.3014 59.2792 -53.9052 58.8105 -52.3ZM146.866 -19.8583C148.156 -19.472 149.525 -20.1838 149.951 -21.4603C150.397 -22.7952 149.615 -24.2907 148.268 -24.6695C146.989 -25.0347 145.561 -24.3068 145.167 -23.055C144.743 -21.6972 145.506 -20.2141 146.866 -19.8583ZM95.8142 -45.2283C94.4992 -45.6486 93.1768 -44.9561 92.7664 -43.6472C92.3571 -42.3384 93.0577 -40.9738 94.3374 -40.5733C95.6152 -40.1721 96.9948 -40.8907 97.4046 -42.1735C97.8193 -43.4712 97.1243 -44.8091 95.8142 -45.2283ZM9.45499 -74.3437C8.20505 -74.7355 6.95514 -74.1068 6.52859 -72.8662C6.0834 -71.5679 6.77097 -70.1624 8.04135 -69.7817C9.23737 -69.4264 10.625 -70.096 11.0131 -71.2815C11.4316 -72.5605 10.7961 -73.9593 9.45499 -74.3437ZM40.4403 -64.0876C40.0857 -62.8562 40.8037 -61.5561 42.0177 -61.2113C43.2428 -60.8722 44.5039 -61.5927 44.8647 -62.8389C45.22 -64.0596 44.4859 -65.4007 43.2905 -65.7213C42.0542 -66.0474 40.7937 -65.327 40.4403 -64.0876Z" fill="#2B97E6"/>
</g>
<rect x="1" y="1" width="367" height="82" rx="23" stroke="black" stroke-width="2"/>
</g>
<defs>
<filter id="filter0_d_8_10872" x="0" y="0" width="369" height="88" filterUnits="userSpaceOnUse" color-interpolation-filters="sRGB">
<feFlood flood-opacity="0" result="BackgroundImageFix"/>
<feColorMatrix in="SourceAlpha" type="matrix" values="0 0 0 0 0 0 0 0 0 0 0 0 0 0 0 0 0 0 127 0" result="hardAlpha"/>
<feOffset dy="4"/>
<feComposite in2="hardAlpha" operator="out"/>
<feColorMatrix type="matrix" values="0 0 0 0 0 0 0 0 0 0 0 0 0 0 0 0 0 0 1 0"/>
<feBlend mode="normal" in2="BackgroundImageFix" result="effect1_dropShadow_8_10872"/>
<feBlend mode="normal" in="SourceGraphic" in2="effect1_dropShadow_8_10872" result="shape"/>
</filter>
<clipPath id="clip0_8_10872">
<rect width="369" height="84" rx="24" fill="white"/>
</clipPath>
</defs>
</svg>
